<svg width="213" height="257" viewBox="0 0 213 257" fill="none" xmlns="http://www.w3.org/2000/svg">
<path d="M206 171.989L194.121 155L154.705 156.416L115 189.921L165.504 197L206 171.989Z" fill="#A74227"/>
<path d="M26 116.066L71.493 48L102 95.9339L54.9014 164L26 116.066Z" fill="#BE4825"/>
<path d="M65.9424 179.639L54 162L64.5 149.5L103.691 179.639L139.822 151.306L156 155.556L93.445 216L65.9424 179.639Z" fill="#F46D32"/>
<path d="M121.848 142.693L102 96.5941L123.993 60L129.358 70.9307L133.113 80.4356L146.523 70.9307L183 126.059L155.642 156L139 152L146 146.5L132.04 134.139L121.848 142.693Z" fill="#E85B2B"/>
<path d="M71 48.5424L95.8776 12L124.5 61L102.5 97.5L71 48.5424Z" fill="#F86F36"/>
<path d="M152.104 241L93 216L119.5 190.5L165.5 196.5L152.104 241Z" fill="#8B3B23"/>
<path d="M152 241L165.5 196.5L213 220.441L174.964 251L152 241Z" fill="#EF6631"/>
<path d="M41 192.5L63 175.455L51.0517 156.545L27.6983 140L0 171.673L41 192.5Z" fill="#9F3F26"/>
<path d="M72.5 230L33.5 198L3.58783 217.194L33.2704 256.5L72.5 230Z" fill="#DE6439"/>
<path d="M54 242.5L33 198.453L63 175L93.5 216L54 242.5Z" fill="#8D3D25"/>
</svg>
